Coordinates
version=1
nRows=24
nColumns=38
inDegrees=no

Units are S.I. units (second, meters, Newtons, ...)
If the header above contains a line with 'inDegrees', this indicates whether rotational values are in degrees (yes) or radians (no).

endheader
time	pelvis_tilt	pelvis_list	pelvis_rotation	pelvis_tx	pelvis_ty	pelvis_tz	hip_flexion_r	hip_adduction_r	hip_rotation_r	knee_angle_r	ankle_angle_r	subtalar_angle_r	mtp_angle_r	hip_flexion_l	hip_adduction_l	hip_rotation_l	knee_angle_l	ankle_angle_l	subtalar_angle_l	mtp_angle_l	lumbar_extension	lumbar_bending	lumbar_rotation	arm_flex_r	arm_add_r	arm_rot_r	elbow_flex_r	pro_sup_r	wrist_flex_r	wrist_dev_r	arm_flex_l	arm_add_l	arm_rot_l	elbow_flex_l	pro_sup_l	wrist_flex_l	wrist_dev_l
105	-2.27925	1.41268	-2.17359	-0.419741	2.11079	0.88202	-0.0203632	-0.311157	-0.698132	0.147893	-0.139091	0	0	-0.45291	-0.110474	0.419779	0.0095116	-0.0936081	0	0	-0.168543	-0.206246	-1.5219	0.332128	-0.143827	1.5708	0.400042	0.482452	0	0	-0.585632	-0.287263	-0.0570033	1.06533	0.730866	0	0
105.01	-2.31988	1.42339	-2.13227	-0.412085	2.11886	0.880769	-0.0140647	-0.290845	-0.698132	0.154691	-0.133181	0	0	-0.435109	-0.116343	0.418642	0.0134278	-0.0936081	0	0	-0.15768	-0.200551	-1.51803	0.326399	-0.154287	1.5708	0.406513	0.441142	0	0	-0.561545	-0.286894	-0.0491904	1.06392	0.730866	0	0
105.02	-2.38941	1.44921	-2.04914	-0.405965	2.12648	0.878329	0.00333682	-0.260238	-0.698132	0.168753	-0.0670835	0	0	-0.37837	-0.111643	0.698132	0.09297	-0.414212	0	0	-0.134677	-0.181437	-1.52178	0.32454	-0.169594	1.5708	0.418458	0.34912	0	0	-0.522673	-0.279583	-0.107541	0.93037	0	0	0
105.03	-2.49605	1.4665	-1.93715	-0.398753	2.13444	0.876567	0.0161778	-0.233092	-0.698132	0.184841	-0.0456969	0	0	-0.347983	-0.121507	0.698132	0.109721	-0.414212	0	0	-0.118068	-0.166932	-1.52068	0.319017	-0.182472	1.5708	0.426096	0.334217	0	0	-0.494291	-0.27621	-0.114492	0.926476	0	0	0
105.04	-2.65957	1.48412	-1.768	-0.39152	2.14244	0.874471	0.0303985	-0.204024	-0.698132	0.200921	-0.0264075	0	0	-0.313374	-0.131685	0.698132	0.130496	-0.414212	0	0	-0.0988244	-0.150371	-1.52011	0.316454	-0.203056	1.5708	0.448181	0.321534	0	0	-0.465272	-0.270739	-0.13355	0.918722	0	0	0
105.05	-2.92754	1.4953	-1.46079	-0.388174	2.1499	0.872929	-0.00453371	-0.206843	-0.671023	0.236019	-0.0416003	0	0	-0.270565	-0.151359	0.698132	0.153677	-0.0936081	0	0	-0.0854853	-0.127882	-1.55327	0.314554	-0.225426	1.5708	0.471669	0.319671	0	0	-0.442941	-0.276601	0.0270221	1.02464	0.730866	0	0
105.06	2.97707	1.50595	-1.07299	-0.381173	2.15773	0.870336	0.00568658	-0.16984	-0.647061	0.237331	-0.0356228	0	0	-0.223796	-0.160387	0.698132	0.183232	-0.0936081	0	0	-0.0613728	-0.108419	-1.55723	0.312484	-0.241903	1.5708	0.485974	0.314976	0	0	-0.414655	-0.271028	0.0457901	1.01626	0.730866	0	0
105.07	2.5372	1.50621	-0.630617	-0.373539	2.1657	0.867715	0.0148939	-0.132563	-0.625952	0.230106	-0.0253492	0	0	-0.174775	-0.163609	0.698132	0.219624	-0.0936081	0	0	-0.0359998	-0.0898977	-1.55441	0.31077	-0.25793	1.5708	0.499301	0.313252	0	0	-0.385831	-0.265032	0.0661862	1.00597	0.730866	0	0
105.08	2.22273	1.50921	-0.421801	-0.35478	2.17544	0.865696	0.113166	-0.0270465	-0.698132	0.0737735	0.090419	0	0	-0.15311	-0.125036	0.698132	0.274664	-0.0936081	0	0	-0.00441433	-0.0860711	-1.44249	0.308676	-0.270023	1.5708	0.510202	0.309316	0	0	-0.355764	-0.263844	0.113949	0.970057	0.730866	0	0
105.09	1.91317	1.5012	-0.132283	-0.344843	2.1837	0.863349	0.125606	0.00146658	-0.698132	0.0748292	0.12007	0	0	-0.104658	-0.111013	0.698132	0.326466	-0.0936081	0	0	0.0191919	-0.0750996	-1.41585	0.30461	-0.281203	1.5708	0.515371	0.312501	0	0	-0.327554	-0.257879	0.136894	0.95663	0.730866	0	0
105.1	1.71036	1.48489	0.0473207	-0.334994	2.19196	0.861575	0.133861	0.0404726	-0.698132	0.0644434	0.142248	0	0	-0.0566956	-0.098441	0.698132	0.384979	-0.0936081	0	0	0.0401128	-0.0569483	-1.38378	0.302966	-0.300247	1.5708	0.533206	0.314343	0	0	-0.295993	-0.251532	0.159293	0.94276	0.730866	0	0
105.11	1.50824	1.48138	0.172137	-0.320527	2.20065	0.859903	0.155958	0.0622131	-0.698132	0.0767208	0.193395	0	0	-0.00892598	-0.0504285	0.698132	0.483261	-0.414212	0	0	0.0652998	-0.0496243	-1.28635	0.297856	-0.324056	1.5708	0.554744	0.309604	0	0	-0.245318	-0.213056	-0.297551	0.851638	0	0	0
105.12	1.4242	1.46068	0.249586	-0.311687	2.20851	0.858674	0.159496	0.0995607	-0.698132	0.0629221	0.186556	0	0	0.0417479	-0.0492425	0.698132	0.527425	-0.0936081	0	0	0.0779347	-0.0286611	-1.26696	0.290645	-0.333257	1.5708	0.553464	0.31753	0	0	-0.224118	-0.239562	0.212029	0.892912	0.730866	0	0
105.13	1.27263	1.46425	0.310072	-0.295815	2.21686	0.857753	0.175741	0.112902	-0.698132	0.0801685	0.193611	0	0	0.0810723	0.00153457	0.698132	0.626343	-0.414212	0	0	0.0953827	-0.0253885	-1.14449	0.279643	-0.365998	1.5708	0.586808	0.302779	0	0	-0.173341	-0.197048	-0.30099	0.857483	0	0	0
105.14	1.03507	1.4456	0.476633	-0.282418	2.22606	0.858237	0.20137	0.143082	-0.698132	0.0822274	0.190371	0	0	0.145712	0.0226209	0.698132	0.700338	-0.414212	0	0	0.143146	0.00265701	-1.04588	0.265691	-0.406592	1.5708	0.61443	0.304289	0	0	-0.203391	-0.240653	-0.316577	0.863364	0	0	0
105.15	-2.25305	1.3953	-3.07876	-0.23031	2.22318	0.874968	0.18256	-0.100085	-0.35195	0.202391	0.201817	0	0	0.150886	0.278616	0.20972	0.780705	-0.414212	0	0	0.119788	-0.231713	-0.403607	0.175745	-0.358449	1.43472	0.518405	0.465476	0	0	-0.162585	-0.263905	-0.260255	0.805791	0.0171057	0	0
105.16	-2.18574	1.40854	3.05867	-0.217797	2.22731	0.873114	0.196239	-0.0663328	-0.291602	0.201613	0.201349	0	0	0.224621	0.218988	0.073881	0.838068	-0.414212	0	0	0.144967	-0.197663	-0.275589	0.143342	-0.418875	1.36806	0.592078	0.428185	0	0	-0.118955	-0.254526	-0.215097	0.766762	0.0450249	0	0
105.17	-2.12328	1.39453	2.92494	-0.20494	2.2271	0.874225	0.212443	-0.056456	-0.211449	0.202705	0.195828	0	0	0.371374	0.00723948	-0.077856	1.37478	-0.414212	0	0	0.164683	-0.200252	-0.150172	0.0609324	-0.415124	1.15425	0.589777	0.576661	0	0	-0.0636885	-0.299792	-0.0406266	0.717001	0.101016	0	0
105.18	-2.30262	1.3984	2.86589	-0.181748	2.22067	0.870252	0.202779	-0.00727652	0.00185864	0.222832	0.202827	0	0	0.255021	-0.299722	-0.643658	1.4297	-0.0936081	0	0	0.177893	-0.152306	0.0993983	0.000687652	-0.455842	0.998355	0.65706	0.736986	0	0	-0.141407	-0.0932458	-0.477331	0.876235	0.744525	0	0
105.19	-2.20437	1.38819	2.86197	-0.17979	2.23038	0.873451	0.188415	-0.0302827	-0.0676074	0.193096	0.206988	0	0	0.371565	-0.112801	-0.308106	1.38984	-0.414212	0	0	0.178546	-0.184006	0.0041783	0.0106139	-0.440562	1.00811	0.645689	0.698795	0	0	-0.0231041	-0.201071	-0.256106	0.651837	0.100264	0	0
105.2	-2.5895	1.42555	-3.04807	-0.170161	2.23732	0.873202	0.0921289	0.00182365	-0.0749034	0.174149	0.225771	0	0	0.274689	-0.399667	-0.676411	1.51634	-0.0936081	0	0	0.104429	-0.163291	-0.000958846	-0.00714089	-0.469328	0.938165	0.711325	0.77388	0	0	-0.0368097	-0.0895833	-0.346831	0.788337	0.72102	0	0
105.21	-2.37456	1.30042	2.88802	-0.150706	2.22427	0.869764	0.187215	-0.0859859	0.144291	0.256831	0.142666	0	0	0.332426	-0.207802	-0.671169	1.41653	-0.0936081	0	0	0.209079	-0.30443	0.138497	0.0182692	-0.394376	0.984094	0.647414	0.741982	0	0	-0.0418427	-0.13682	-0.316859	0.787343	0.773482	0	0
105.22	-2.35036	1.23814	2.85072	-0.132439	2.22669	0.871123	0.166557	-0.140469	0.181324	0.177077	0.192219	0	0	0.353731	-0.0837414	-0.601975	1.30388	-0.0936081	0	0	0.274499	-0.382018	0.160607	-0.00627711	-0.333857	0.937478	0.604529	0.832485	0	0	-0.08914	-0.173771	-0.329114	0.812892	0.797653	0	0
105.23	-2.18109	1.37392	3.01555	-0.119135	2.24801	0.886421	0.0166573	0.00637949	-0.269419	0.0221952	0.0438027	0	0	0.472618	-0.0797733	-0.161244	1.31898	-0.0936081	0	0	0.206557	-0.354295	-0.211575	-0.0387285	-0.251564	0.915136	0.515051	0.883525	0	0	-0.161814	-0.220315	-0.342944	0.827303	0.825818	0	0
